<?xml version="1.0" encoding="UTF-8" standalone="no"?>
<svg
   width="109.63"
   height="32.001698"
   viewBox="0 0 109.63 32.001698"
   fill="none"
   version="1.1"
   id="svg11"
   sodipodi:docname="auth0-ai-logo.svg"
   inkscape:version="1.4 (e7c3feb100, 2024-10-09)"
   xmlns:inkscape="http://www.inkscape.org/namespaces/inkscape"
   xmlns:sodipodi="http://sodipodi.sourceforge.net/DTD/sodipodi-0.dtd"
   xmlns="http://www.w3.org/2000/svg"
   xmlns:svg="http://www.w3.org/2000/svg">
  <defs
     id="defs11" />
  <sodipodi:namedview
     id="namedview11"
     pagecolor="#ffffff"
     bordercolor="#000000"
     borderopacity="0.25"
     inkscape:showpageshadow="2"
     inkscape:pageopacity="0.0"
     inkscape:pagecheckerboard="0"
     inkscape:deskcolor="#d1d1d1"
     inkscape:zoom="16.293125"
     inkscape:cx="67.543827"
     inkscape:cy="16.93966"
     inkscape:window-width="3440"
     inkscape:window-height="1340"
     inkscape:window-x="0"
     inkscape:window-y="32"
     inkscape:window-maximized="1"
     inkscape:current-layer="svg11" />
  <path
     d="m 35.0768,20.0987 c 0,-3.4398 2.8538,-4.7393 6.4462,-4.7393 h 3.4908 c 0.2547,0 0.3823,-0.1276 0.3823,-0.3823 v -0.5349 c 0,-1.86 -1.4012,-2.7518 -3.4653,-2.7518 -1.6052,0 -2.7007,0.5354 -3.2871,1.6819 -0.2037,0.4078 -0.3823,0.5604 -0.8152,0.5604 h -1.5032 c -0.4839,0 -0.7135,-0.2547 -0.7135,-0.637 0,-0.1786 0.051,-0.4333 0.2547,-0.8662 0.9683,-2.0127 2.8538,-3.31219 6.3701,-3.31219 3.9237,0 6.2425,1.73289 6.2425,5.52899 v 6.2935 c 0,0.637 0.2292,0.7901 0.7642,0.7901 h 0.0255 c 0.5094,0 0.7641,0.2547 0.7641,0.7642 v 1.274 c 0,0.5094 -0.2547,0.7642 -0.7641,0.7642 H 48.377 c -1.4526,0 -2.1912,-0.3823 -2.65,-1.3761 -0.0766,-0.1786 -0.1276,-0.2292 -0.2292,-0.2292 -0.1017,0 -0.1786,0.051 -0.3823,0.2292 -1.1465,1.0193 -2.5736,1.5542 -4.4846,1.5542 -2.9048,0 -5.5541,-1.3505 -5.5541,-4.6117 z m 10.3193,-1.7328 v -0.2548 c 0,-0.2547 -0.1276,-0.3822 -0.3823,-0.3822 h -3.822 c -1.7835,0 -3.032,0.6625 -3.032,2.2422 0,1.5798 1.274,2.2423 2.8028,2.2423 2.3698,0 4.4335,-1.4781 4.4335,-3.8475 z"
     fill="#ffffff"
     id="path1" />
  <path
     d="m 51.3072,17.8761 v -7.8223 c 0,-0.50947 0.2547,-0.76419 0.7642,-0.76419 h 1.5542 c 0.5095,0 0.7642,0.25472 0.7642,0.76419 v 7.542 c 0,2.446 0.8917,4.255 3.4398,4.255 2.7011,0 3.9747,-2.1403 3.9747,-4.6118 v -7.1857 c 0,-0.50939 0.2547,-0.76411 0.7641,-0.76411 h 1.5543 c 0.5094,0 0.7641,0.25472 0.7641,0.76411 v 13.7085 c 0,0.5094 -0.2547,0.7642 -0.7641,0.7642 h -1.4012 c -0.4588,0 -0.7135,-0.2292 -0.7901,-0.6881 l -0.1275,-0.688 c -0.0256,-0.1531 -0.1021,-0.2292 -0.2293,-0.2292 -0.1016,0 -0.1781,0.051 -0.3053,0.1786 -1.0448,0.9427 -2.3188,1.6053 -4.2043,1.6053 -4.0003,0 -5.7578,-2.8793 -5.7578,-6.8285 z"
     fill="#ffffff"
     id="path2" />
  <path
     d="M 67.7423,20.377 V 4.93616 c 0,-0.50944 0.2548,-0.76416 0.7642,-0.76416 h 1.5543 c 0.5094,0 0.7641,0.25472 0.7641,0.76416 v 3.97472 c 0,0.25472 0.1276,0.38229 0.3823,0.38229 h 4.5101 c 0.5094,0 0.7642,0.25472 0.7642,0.76413 v 1.274 c 0,0.5095 -0.2548,0.7646 -0.7642,0.7646 h -4.5101 c -0.2547,0 -0.3823,0.1276 -0.3823,0.3823 v 7.6186 c 0,1.1209 0.5095,1.6308 1.6559,1.6308 h 3.5418 c 0.5095,0 0.7642,0.2547 0.7642,0.7642 v 1.274 c 0,0.5094 -0.2547,0.7641 -0.7642,0.7641 h -3.6945 c -3.185,0 -4.5858,-1.2736 -4.5858,-4.1529 z"
     fill="#ffffff"
     id="path3" />
  <path
     d="M 78.9031,23.7658 V 4.93616 c 0,-0.50944 0.2547,-0.76416 0.7641,-0.76416 h 1.5543 c 0.5094,0 0.7641,0.25472 0.7641,0.76416 v 5.93674 c 0,0.1531 0.1017,0.2548 0.2292,0.2548 0.0766,0 0.1527,-0.0256 0.3823,-0.2293 1.121,-1.01925 2.3439,-1.78341 4.4081,-1.78341 3.9747,0 5.7586,2.80271 5.7586,6.93051 v 7.7207 c 0,0.5094 -0.2548,0.7642 -0.7642,0.7642 h -1.5543 c -0.5094,0 -0.7641,-0.2548 -0.7641,-0.7642 v -7.5676 c 0,-2.3698 -0.9173,-4.2298 -3.4143,-4.2298 -2.6756,0 -4.2804,2.1657 -4.2804,5.2236 v 6.5738 c 0,0.5094 -0.2548,0.7642 -0.7642,0.7642 h -1.5542 c -0.5095,0 -0.765,-0.2552 -0.765,-0.7646 z"
     fill="#ffffff"
     id="path4" />
  <path
     d="m 94.6995,14.3628 c 0,-6.90508 2.6752,-10.37036 7.4655,-10.37036 4.79,0 7.465,3.46528 7.465,10.37036 0,6.905 -2.675,10.3448 -7.465,10.3448 -4.7899,0 -7.4655,-3.4653 -7.4655,-10.3448 z m 3.7455,2.3188 6.752,-7.49103 c 0.102,-0.12757 0.153,-0.2037 0.153,-0.38229 0,-0.12757 -0.025,-0.28024 -0.204,-0.50986 -0.688,-0.8407 -1.655,-1.4522 -2.981,-1.4522 -2.8023,0 -4.382,2.54804 -4.382,7.54208 0,0.7131 0.0255,1.3505 0.1275,2.2167 0.0255,0.1531 0.1016,0.2548 0.2292,0.2548 0.0766,0 0.1782,-0.0255 0.3053,-0.1782 z m 8.103,-2.3699 c 0,-0.7135 -0.026,-1.3505 -0.128,-2.2167 -0.026,-0.1531 -0.102,-0.2548 -0.229,-0.2548 -0.077,0 -0.179,0.0256 -0.306,0.1786 l -6.7523,7.4911 c -0.1017,0.1275 -0.1527,0.2037 -0.1527,0.3822 0,0.1276 0.0255,0.2803 0.2037,0.5095 0.688,0.8407 1.6563,1.4522 2.9813,1.4522 2.803,0 4.383,-2.548 4.383,-7.5421 z"
     fill="#ffffff"
     id="path5" />
  <path
     d="M 1.68935,13.6673 C 6.93599,12.8036 11.0479,8.69124 11.912,3.4446 l 0.4204,-2.55138599 c 0.0807,-0.493546 -0.3246,-0.9289531 -0.8236,-0.8908915 C 7.51403,0.31141601 3.74928,1.63395 1.67011,2.48636 0.660431,2.90086 0,3.8821 0,4.97417 V 13.039 c 0,0.4744 0.424115,0.8353 0.892565,0.7584 z"
     fill="#ffffff"
     id="path6" />
  <path
     d="m 14.4422,3.44423 c 0.8637,5.24665 4.9761,9.35857 10.2227,10.22267 l 0.7968,0.1305 c 0.4684,0.077 0.8926,-0.284 0.8926,-0.7583 V 4.97423 c 0,-1.0925 -0.6605,-2.07331 -1.6701,-2.48781 C 22.605,1.63234 18.8386,0.31147201 14.8454,0.00237819 14.3465,-0.03610169 13.9395,0.39805201 14.0219,0.89327101 Z"
     fill="#ffffff"
     id="path7" />
  <path
     d="m 24.665,16.1959 c -5.2466,0.8637 -9.3585,4.976 -10.2227,10.2227 l -0.524,4.9797 c -0.0481,0.4493 0.4513,0.7659 0.8273,0.5145 0.0038,-0.0021 0.0058,-0.0038 0.0096,-0.0058 3.2905,-2.2193 10.7965,-8.0285 11.5394,-15.2849 0.0364,-0.3572 -0.2803,-0.6487 -0.6337,-0.5914 l -0.9946,0.1631 z"
     fill="#ffffff"
     id="path8" />
  <path
     d="M 11.9135,26.4136 C 11.0498,21.167 6.93746,17.055 1.69082,16.1909 L 0.621329,16.0144 C 0.30638,15.9625 0.024473,16.2235 0.0550059,16.5423 0.759355,23.8392 8.36917,29.6848 11.6885,31.9079 c 0.3438,0.2283 0.7984,-0.0461 0.7545,-0.4568 z"
     fill="#ffffff"
     id="path9" />
</svg>
